<?xml version="1.0" encoding="UTF-8"?><svg id="Layer_1" xmlns="http://www.w3.org/2000/svg" viewBox="0 0 280 280"><defs><style>.cls-1{fill:#fff;}.cls-2{fill:#191f4a;}</style></defs><rect class="cls-2" x="-.89" y="-5.86" width="286" height="286"/><g><path class="cls-1" d="m229.97,99.2c-3.38-4.61-7.11-8.96-11.15-13-2.33-2.33-4.76-4.56-7.29-6.67,0,.05.01.06,1.83,1.9,2.03,2.05,4.81,4.85,7.59,7.8,3.5,3.71,6.73,7.67,10.11,11.49l-.04-.06c-.35-.49-.69-.97-1.05-1.45Z"/><path class="cls-1" d="m212.35,86.9c-2.57.41.56,6.51,8.59,14.06,1,.93,9.73,9.04,10.11,6.17-.61-5.99-14.42-20.92-18.71-20.23Z"/><path class="cls-1" d="m213.98,106.55c-5.21,1.27-2.05,11.55,6.96,17.42,2.51,1.63,9.75,5.12,10.11-.11-.47-7.51-11.48-18.68-17.07-17.31Z"/><path class="cls-1" d="m214.68,135.87c-6.18,3.94-3.22,16.8,6.26,19.12,4,.98,9.78-.5,10.11-6.85-.42-8.43-10.52-16-16.38-12.27Z"/><path class="cls-1" d="m213.36,173.85c-4.35,7.13-.75,16.74,7.59,14.86,3.88-.88,9.78-5.32,10.11-12.08-.03-.51-.07-1.19-.17-1.69-1.55-7.46-12.47-9.39-17.53-1.09Z"/><path class="cls-1" d="m233.66,105.77s-.11.08-.16.11q.11.68,6.47,12.95c2.83,5.46,4.26,8.72,5.3,11.11q.57,1.3.81,1.62c-.59-4.34-9.05-23.27-12.42-25.78Z"/><path class="cls-1" d="m234.44,115.99c-1.28-.34-2.34,2.38,5.53,14.18,5.37,8.05,5.84,8.02,6.01,8.01.06-.09.08-.23.09-.34-.36-5.14-7.72-20.8-11.64-21.85Z"/><path class="cls-1" d="m235.27,133.71c-3.35.44-1.86,8.77,4.7,14.05.06.05,5.89,4.69,6.11,1.16-.27-5.05-6.66-15.76-10.81-15.21Z"/><path class="cls-1" d="m235.27,157.08c-3.72,3.82-1.26,12.71,4.7,12.3,2.35-.16,5.92-2.2,6.11-6.05-.25-5.26-7.08-10.08-10.81-6.25Z"/><path class="cls-1" d="m175.2,59.22c-5.54-1.84-11.27-3.27-17.16-4.23-2.97-.48-5.97-.85-9.01-1.1,0,.01,0,.03,0,.04,1.6.48,9.91,2.3,13.41,3.07,6.62,1.44,14.73,3.18,15.76,3.27l-.06-.03c-.97-.35-1.95-.7-2.94-1.02Z"/><path class="cls-1" d="m150.8,62.31c-5.18,3.03.92,9.01,11.65,11.42,5.8,1.3,15.2,1.65,15.76-2.99-.85-7.46-20.67-12.36-27.4-8.43Z"/><path class="cls-1" d="m152.44,87.31c-7.77,5.77-1.97,16.89,10.01,19.19,6.22,1.2,15.22-.66,15.76-8.54-.74-11.14-17.75-16.6-25.77-10.65Z"/><path class="cls-1" d="m154.49,125.18c-10.49,7.35-5.36,23.81,7.96,25.52,6.22.8,15.22-2.77,15.76-13.21-.67-12.94-14.92-18.47-23.72-12.31Z"/><path class="cls-1" d="m153.41,174.42c-9.07,9.15-3.58,23.94,9.03,24.34,5.79.18,15.2-3.69,15.76-14.87-.71-14.17-16.21-18.13-24.79-9.47Z"/><path class="cls-1" d="m182.93,63.93c-2.49.55,2.75,5.17,11.21,9.89.13.07,12.81,7.11,13.39,4.81-.76-3.98-20.3-15.65-24.6-14.7Z"/><path class="cls-1" d="m184.63,79.82c-5.74,2.58-.41,11.76,9.51,16.37,4.93,2.29,12.93,3.95,13.39-1.37-.63-7.99-16.04-18.08-22.9-15Z"/><path class="cls-1" d="m186.26,109.35c-8.06,4.67-3.06,18.36,7.88,21.55,5.29,1.54,12.94.23,13.39-7.5-.6-10.77-14.08-18.2-21.27-14.04Z"/><path class="cls-1" d="m186.26,150.09c-8.03,7.7-2.95,22.83,7.88,23.46,5.29.31,12.94-3.52,13.39-13-.59-12.45-14.07-17.36-21.27-10.46Z"/><path class="cls-1" d="m104.69,59.22c-5.54,1.84-10.89,4.11-16,6.76-2.2,1.14-4.36,2.35-6.47,3.63,0,0,0,.02,0,.03,3.93-1.46,7.68-3.34,11.52-5.01,12.43-5.41,14.34-6.24,15.23-6.74h-.07c-1.42.42-2.82.86-4.21,1.32Z"/><path class="cls-1" d="m82.72,77.31c-2.51,4.68,3.67,5.26,11.02,2.87,5.59-1.82,14.66-6.57,15.23-11.59-.02-.18-.03-.42-.07-.6-1.56-5.95-21.86,1.28-26.18,9.32Z"/><path class="cls-1" d="m84.3,97.93c-5.62,8.21.56,14.12,9.44,12.71,6-.95,14.68-5.99,15.23-14.2-.02-.32-.03-.75-.07-1.07-1.32-9.31-17.64-7.6-24.6,2.57Z"/><path class="cls-1" d="m86.75,129.7c-9.18,8.96-3.5,21.55,6.99,22.01h0c5.99.27,14.68-4.17,15.23-14.85-.65-12.45-14.2-14.98-22.22-7.16Z"/><path class="cls-1" d="m87.74,171.75c-9.79,6.57-6.09,21.76,6,24.63,6,1.42,14.68-1.38,15.23-12.06-.63-12.53-13-18.09-21.23-12.57Z"/><path class="cls-1" d="m113.58,58.84c-1.69,2.11,4.15,3.27,13.01,2.58,6.71-.52,16.41-2.4,17-4.96-1.16-4.89-27.3-1.01-30,2.37Z"/><path class="cls-1" d="m115.78,74.25c-6.19,6.06-.43,12.77,10.81,12.59,6.7-.11,16.4-3.29,17-10.02-.87-9.72-20.23-10-27.81-2.58Z"/><path class="cls-1" d="m117.57,105.07c-8.78,8.08-3.47,20.56,9.02,21.19,6.7.34,16.4-3.64,17-13.54-.77-12.62-17.26-15.7-26.02-7.64Z"/><path class="cls-1" d="m118.61,147.96c-10.02,8.54-5.03,25.29,7.98,26.74,6.7.75,16.4-3.5,17-15.31-.72-14.24-15.95-19.13-24.97-11.44Z"/><path class="cls-1" d="m118.61,196.29c-10.07,7.29-5.15,22.06,7.98,23.94,6.7.96,16.4-2.34,17-12.67-.74-12.79-15.97-17.8-24.97-11.27Z"/><path class="cls-1" d="m49.93,99.2c-3.38,4.61-6.42,9.5-9.07,14.62-.95,1.82-1.84,3.68-2.69,5.56,0,0,0,0,0,0,1.5-2.98,3.05-6.07,6.03-10.94,2.87-4.69,6.13-9.12,9.17-13.7l-.04.05c-1.17,1.44-2.3,2.91-3.4,4.41Z"/><path class="cls-1" d="m52.96,101.08s-2.54-.18-8.76,9.64c-2.92,4.61-6.68,12.85-5.94,13.58.34-.05.73-.11,5.94-7.09h0c6.01-8.05,8.92-12.95,9.17-15.45-.04-.29-.08-.62-.41-.68Z"/><path class="cls-1" d="m38.17,135.34c-.44,3.99,4.51.28,6.03-.96,3.24-2.62,8.81-8.59,9.17-14.35-.04-.51-.08-1.21-.41-1.71-2.97-4.56-13.99,9.63-14.79,17.02Z"/><path class="cls-1" d="m41.51,145.44c-5.85,7.06-3.45,12.81,2.69,12.1,4.26-.49,8.86-4.73,9.17-10.98-.01-.27-.02-.64-.05-.91-.6-5.59-6.44-6.7-11.81-.21Z"/><path class="cls-1" d="m42.77,167.84c-7.61,1.81-4.66,11.17,1.43,14.89,4.16,2.54,8.85,1.34,9.17-5.02-.34-7-5.88-10.98-10.6-9.86Z"/><path class="cls-1" d="m77.64,74.4c-3.07-1.2-22.28,15.94-21.41,19.1.24.13.97.54,9.07-5.99,2.82-2.28,12.07-9.92,12.59-12.74-.03-.13-.12-.32-.25-.37Z"/><path class="cls-1" d="m56.37,105.44c-1.22,4.72,3.56,4.12,8.92,1.09,4.81-2.71,12.12-8.9,12.59-14.83-.05-.57-.11-1.27-.54-1.84-3.43-4.48-18.71,6.87-20.97,15.58Z"/><path class="cls-1" d="m58.39,123.89c-5.21,8.36-.48,13.75,6.9,12.14,4.95-1.08,12.13-6.29,12.59-14.49-.04-.62-.09-1.46-.25-2.06-1.97-7.72-13.3-5.12-19.24,4.41Z"/><path class="cls-1" d="m61.36,151.56c-9.02,6.57-5.18,19.04,3.93,20.72,4.95.91,12.13-2.18,12.59-11.93-.51-10.66-9.66-13.79-16.52-8.79Z"/><path class="cls-1" d="m61.36,186.55c-9.07,2.43-5.23,14.89,3.93,19.8,5.86,3.14,12.17,1.77,12.59-5.95-.51-9.53-9.66-15.69-16.52-13.85Z"/></g></svg>