<?xml version="1.0" encoding="UTF-8"?><svg id="Layer_1" xmlns="http://www.w3.org/2000/svg" viewBox="0 0 813.45 234.82"><defs><style>.cls-1{fill:#fff;}</style></defs><path class="cls-1" d="m193.58,76.97c-2.69-3.67-5.66-7.13-8.87-10.34-1.85-1.85-3.79-3.63-5.8-5.31,0,.04,0,.05,1.45,1.51,1.61,1.63,3.82,3.86,6.04,6.21,2.79,2.96,5.36,6.1,8.05,9.14l-.03-.05c-.28-.39-.55-.77-.83-1.16Z"/><path class="cls-1" d="m179.56,67.18c-2.05.33.44,5.19,6.84,11.19.79.74,7.75,7.2,8.05,4.91-.48-4.76-11.48-16.65-14.89-16.1Z"/><path class="cls-1" d="m180.86,82.81c-4.15,1.01-1.63,9.19,5.54,13.87,2,1.3,7.76,4.08,8.05-.09-.37-5.98-9.14-14.86-13.59-13.78Z"/><path class="cls-1" d="m181.42,106.15c-4.92,3.13-2.57,13.37,4.99,15.22,3.18.78,7.79-.4,8.05-5.45-.34-6.71-8.38-12.73-13.03-9.76Z"/><path class="cls-1" d="m180.36,136.38c-3.46,5.68-.6,13.33,6.04,11.83,3.09-.7,7.78-4.24,8.05-9.62-.02-.41-.05-.95-.14-1.35-1.24-5.94-9.92-7.47-13.95-.87Z"/><path class="cls-1" d="m196.52,82.2s-.09.06-.13.09q.09.54,5.15,10.3c2.25,4.34,3.39,6.94,4.22,8.84q.45,1.03.64,1.29c-.47-3.45-7.21-18.52-9.88-20.52Z"/><path class="cls-1" d="m197.15,90.33c-1.02-.27-1.86,1.89,4.4,11.28,4.28,6.41,4.65,6.38,4.79,6.37.04-.07.07-.19.07-.27-.29-4.09-6.15-16.55-9.26-17.39Z"/><path class="cls-1" d="m197.8,104.43c-2.67.35-1.48,6.98,3.74,11.18.05.04,4.68,3.73,4.86.92-.22-4.02-5.3-12.54-8.61-12.1Z"/><path class="cls-1" d="m197.8,123.03c-2.96,3.04-1,10.11,3.74,9.79,1.87-.13,4.71-1.75,4.86-4.81-.2-4.19-5.64-8.02-8.61-4.97Z"/><path class="cls-1" d="m150,45.15c-4.41-1.47-8.97-2.6-13.66-3.36-2.36-.39-4.75-.68-7.17-.87,0,0,0,.02,0,.03,1.27.38,7.89,1.83,10.67,2.44,5.27,1.15,11.72,2.53,12.54,2.6l-.05-.03c-.77-.28-1.55-.55-2.34-.81Z"/><path class="cls-1" d="m130.58,47.6c-4.12,2.41.73,7.17,9.27,9.09,4.61,1.04,12.1,1.31,12.54-2.38-.68-5.94-16.45-9.84-21.81-6.71Z"/><path class="cls-1" d="m131.88,67.5c-6.18,4.59-1.57,13.44,7.97,15.28,4.95.95,12.12-.53,12.54-6.8-.59-8.86-14.13-13.21-20.51-8.48Z"/><path class="cls-1" d="m133.51,97.64c-8.35,5.85-4.26,18.95,6.34,20.31,4.95.64,12.11-2.2,12.54-10.51-.53-10.3-11.88-14.7-18.88-9.8Z"/><path class="cls-1" d="m132.66,136.83c-7.22,7.28-2.85,19.05,7.19,19.37,4.61.15,12.09-2.94,12.54-11.83-.57-11.27-12.9-14.43-19.73-7.54Z"/><path class="cls-1" d="m156.15,48.89c-1.98.44,2.19,4.12,8.92,7.87.1.06,10.2,5.66,10.66,3.83-.61-3.16-16.16-12.46-19.58-11.7Z"/><path class="cls-1" d="m157.5,61.55c-4.57,2.05-.33,9.36,7.57,13.03,3.93,1.82,10.29,3.14,10.66-1.09-.51-6.36-12.77-14.39-18.23-11.94Z"/><path class="cls-1" d="m158.8,85.05c-6.42,3.72-2.43,14.61,6.27,17.15,4.21,1.23,10.3.18,10.66-5.97-.48-8.57-11.21-14.49-16.93-11.18Z"/><path class="cls-1" d="m158.8,117.47c-6.39,6.13-2.35,18.17,6.27,18.67,4.21.24,10.3-2.8,10.66-10.34-.47-9.91-11.2-13.82-16.93-8.33Z"/><path class="cls-1" d="m93.88,45.15c-4.41,1.47-8.67,3.27-12.74,5.38-1.75.91-3.47,1.87-5.15,2.89,0,0,0,.02,0,.02,3.13-1.17,6.11-2.65,9.17-3.98,9.89-4.31,11.41-4.97,12.12-5.36h-.05c-1.13.33-2.24.68-3.35,1.05Z"/><path class="cls-1" d="m76.39,59.55c-2,3.73,2.92,4.19,8.77,2.28,4.45-1.45,11.67-5.23,12.12-9.22-.02-.14-.02-.34-.06-.48-1.24-4.73-17.4,1.02-20.83,7.41Z"/><path class="cls-1" d="m77.65,75.96c-4.47,6.54.44,11.24,7.52,10.11,4.77-.76,11.69-4.77,12.12-11.3-.02-.26-.02-.6-.06-.85-1.05-7.41-14.04-6.05-19.58,2.05Z"/><path class="cls-1" d="m79.6,101.24c-7.31,7.13-2.78,17.15,5.56,17.52h0c4.77.21,11.68-3.32,12.12-11.82-.52-9.91-11.3-11.92-17.68-5.7Z"/><path class="cls-1" d="m80.39,134.71c-7.79,5.23-4.84,17.32,4.77,19.6,4.77,1.13,11.69-1.1,12.12-9.6-.5-9.97-10.35-14.4-16.89-10Z"/><path class="cls-1" d="m100.96,44.85c-1.34,1.68,3.3,2.6,10.35,2.06,5.34-.41,13.06-1.91,13.53-3.94-.92-3.89-21.72-.8-23.88,1.89Z"/><path class="cls-1" d="m102.7,57.11c-4.93,4.83-.34,10.17,8.61,10.02,5.33-.08,13.06-2.61,13.53-7.97-.69-7.73-16.1-7.96-22.13-2.05Z"/><path class="cls-1" d="m104.13,81.64c-6.99,6.43-2.76,16.36,7.18,16.86,5.33.27,13.05-2.9,13.53-10.78-.61-10.04-13.74-12.5-20.71-6.08Z"/><path class="cls-1" d="m104.96,115.77c-7.98,6.8-4,20.13,6.35,21.28,5.33.6,13.05-2.79,13.53-12.18-.58-11.33-12.7-15.22-19.87-9.1Z"/><path class="cls-1" d="m104.96,154.24c-8.01,5.8-4.1,17.56,6.35,19.05,5.33.76,13.05-1.86,13.53-10.08-.59-10.18-12.71-14.16-19.87-8.97Z"/><path class="cls-1" d="m50.29,76.97c-2.69,3.67-5.11,7.56-7.22,11.63-.75,1.45-1.47,2.93-2.14,4.43,0,0,0,0,0,0,1.19-2.37,2.43-4.83,4.8-8.71,2.28-3.73,4.88-7.26,7.3-10.91l-.03.04c-.93,1.15-1.83,2.32-2.71,3.51Z"/><path class="cls-1" d="m52.71,78.46s-2.02-.14-6.97,7.67c-2.33,3.67-5.32,10.22-4.73,10.81.27-.04.58-.09,4.73-5.64h0c4.78-6.4,7.1-10.31,7.3-12.29-.03-.23-.07-.5-.33-.54Z"/><path class="cls-1" d="m40.94,105.73c-.35,3.18,3.59.22,4.8-.76,2.58-2.08,7.01-6.84,7.3-11.42-.03-.41-.07-.97-.33-1.36-2.36-3.63-11.13,7.67-11.77,13.55Z"/><path class="cls-1" d="m43.6,113.77c-4.66,5.62-2.74,10.19,2.14,9.63,3.39-.39,7.05-3.76,7.3-8.74-.01-.22-.01-.51-.04-.72-.48-4.45-5.12-5.33-9.4-.17Z"/><path class="cls-1" d="m44.6,131.59c-6.06,1.44-3.71,8.89,1.14,11.85,3.31,2.02,7.04,1.07,7.3-4-.27-5.57-4.68-8.74-8.44-7.85Z"/><path class="cls-1" d="m72.35,57.23c-2.44-.95-17.73,12.69-17.04,15.21.19.11.77.43,7.22-4.77,2.25-1.81,9.6-7.9,10.02-10.14-.03-.1-.1-.26-.2-.3Z"/><path class="cls-1" d="m55.42,81.93c-.97,3.75,2.84,3.28,7.1.87,3.82-2.16,9.65-7.08,10.02-11.8-.04-.45-.09-1.01-.43-1.46-2.73-3.57-14.89,5.47-16.69,12.4Z"/><path class="cls-1" d="m57.03,96.62c-4.15,6.66-.39,10.95,5.49,9.66,3.94-.86,9.66-5.01,10.02-11.53-.03-.49-.07-1.16-.2-1.64-1.57-6.14-10.59-4.08-15.32,3.51Z"/><path class="cls-1" d="m59.39,118.64c-7.18,5.23-4.13,15.15,3.13,16.49,3.94.73,9.65-1.74,10.02-9.49-.4-8.48-7.69-10.98-13.15-7Z"/><path class="cls-1" d="m59.39,146.49c-7.22,1.93-4.16,11.85,3.13,15.76,4.66,2.5,9.68,1.41,10.02-4.73-.4-7.59-7.69-12.48-13.15-11.02Z"/><path class="cls-1" d="m297.17,96.37c-2.52-2.55-5.25-4.46-8.21-5.74-2.96-1.28-6.13-1.91-9.5-1.91-7.34,0-13.57,2.78-18.7,8.33-5.13,5.55-7.7,12.67-7.7,21.36s2.65,15.39,7.95,21.02c5.31,5.64,11.59,8.46,18.86,8.46,3.24,0,6.24-.58,9.02-1.73,2.77-1.15,5.54-3.04,8.29-5.66v5.95h14.12v-77.99h-14.12v27.93Zm-3.76,33.95c-2.92,3.09-6.6,4.63-11.03,4.63s-7.91-1.57-10.85-4.71c-2.94-3.14-4.41-7.14-4.41-12s1.44-8.78,4.33-11.87c2.89-3.09,6.51-4.63,10.88-4.63s8.16,1.52,11.08,4.55c2.92,3.03,4.38,7,4.38,11.9s-1.46,9.04-4.38,12.13Z"/><path class="cls-1" d="m367.34,96.37c-2.52-2.55-5.25-4.46-8.21-5.74-2.96-1.28-6.13-1.91-9.5-1.91-7.34,0-13.57,2.78-18.7,8.33-5.13,5.55-7.7,12.67-7.7,21.36s2.65,15.39,7.95,21.02c5.31,5.64,11.59,8.46,18.86,8.46,3.24,0,6.24-.58,9.02-1.73,2.77-1.15,5.54-3.04,8.29-5.66v5.95h14.12v-56.27h-14.12v6.21Zm-3.76,33.95c-2.92,3.09-6.6,4.63-11.03,4.63s-7.91-1.57-10.85-4.71c-2.94-3.14-4.41-7.14-4.41-12s1.44-8.78,4.33-11.87c2.89-3.09,6.51-4.63,10.88-4.63s8.16,1.52,11.08,4.55c2.92,3.03,4.38,7,4.38,11.9s-1.46,9.04-4.38,12.13Z"/><polygon class="cls-1" points="416.02 70.87 401.9 70.87 401.9 91.61 394.65 91.61 394.65 103.77 401.9 103.77 401.9 147.89 416.02 147.89 416.02 103.77 424.39 103.77 424.39 91.61 416.02 91.61 416.02 70.87"/><path class="cls-1" d="m477.92,96.37c-2.52-2.55-5.25-4.46-8.21-5.74-2.96-1.28-6.13-1.91-9.5-1.91-7.34,0-13.57,2.78-18.7,8.33-5.13,5.55-7.7,12.67-7.7,21.36s2.65,15.39,7.95,21.02c5.31,5.64,11.59,8.46,18.86,8.46,3.24,0,6.24-.58,9.02-1.73,2.77-1.15,5.54-3.04,8.29-5.66v5.95h14.12v-56.27h-14.12v6.21Zm-3.76,33.95c-2.92,3.09-6.6,4.63-11.03,4.63s-7.91-1.57-10.85-4.71c-2.94-3.14-4.41-7.14-4.41-12s1.44-8.78,4.33-11.87c2.89-3.09,6.51-4.63,10.88-4.63s8.16,1.52,11.08,4.55c2.92,3.03,4.38,7,4.38,11.9s-1.46,9.04-4.38,12.13Z"/><polygon class="cls-1" points="526.6 70.87 512.48 70.87 512.48 91.61 505.24 91.61 505.24 103.77 512.48 103.77 512.48 147.89 526.6 147.89 526.6 103.77 534.97 103.77 534.97 91.61 526.6 91.61 526.6 70.87"/><path class="cls-1" d="m573.46,88.72c-8.35,0-15.28,2.84-20.82,8.51-5.54,5.67-8.3,12.8-8.3,21.39s2.77,15.35,8.33,20.92c5.55,5.57,12.74,8.35,21.57,8.35,5.69,0,10.6-1.01,14.74-3.03,4.14-2.02,7.69-5.13,10.65-9.33l-11.9-5.59c-3.79,3.69-8.33,5.53-13.6,5.53-4.41,0-8.04-1.18-10.89-3.54-2.85-2.36-4.6-5.54-5.25-9.54h45.36l.05-2.69c0-9.31-2.78-16.8-8.33-22.47-5.55-5.67-12.76-8.51-21.62-8.51Zm-14.84,22.55c1.59-3.48,3.32-5.91,5.18-7.29,2.97-2.21,6.42-3.31,10.36-3.31,3.63,0,6.81.98,9.56,2.95,2.75,1.96,4.59,4.52,5.52,7.65h-30.62Z"/><path class="cls-1" d="m646.32,101.85c2.9,0,5.43.45,7.59,1.34,2.16.9,4.34,2.5,6.55,4.81l11.75-6.47c-2.83-4.1-6.47-7.27-10.91-9.49-4.45-2.22-9.47-3.34-15.05-3.34-6.04,0-11.49,1.31-16.37,3.93-4.88,2.62-8.68,6.22-11.41,10.81-2.72,4.59-4.09,9.6-4.09,15.05,0,7.86,2.8,14.72,8.41,20.59,5.6,5.86,13.35,8.79,23.25,8.79,11,0,19.52-3.92,25.55-11.77l-11.13-7.62c-3.52,4.31-8.44,6.46-14.76,6.46-5.11,0-9.23-1.51-12.37-4.54-3.14-3.03-4.71-6.94-4.71-11.72s1.63-8.96,4.89-12.11c3.26-3.15,7.53-4.72,12.82-4.72Z"/><path class="cls-1" d="m713.95,90.17c-2.86,0-5.69.59-8.48,1.78-2.79,1.19-5.57,2.97-8.33,5.35v-27.41h-14.02v77.99h14.02v-22.6c0-6.03.21-9.9.62-11.59.79-3.27,2.22-5.86,4.27-7.76,2.05-1.9,4.51-2.84,7.37-2.84,2.21,0,4.06.57,5.56,1.71,1.5,1.14,2.56,2.86,3.18,5.17.62,2.31.93,6.72.93,13.24v24.67h13.91v-37.19c0-6.48-1.64-11.4-4.91-14.74-3.83-3.86-8.53-5.79-14.12-5.79Z"/><path class="cls-1" d="m742.89,137.96c-4.02,4.06-1.59,10.62,4.01,10.8,2.57.08,6.74-1.64,6.99-6.6-.32-6.29-7.19-8.05-11-4.2Z"/></svg>