<?xml version="1.0" encoding="UTF-8"?><svg id="Layer_1" xmlns="http://www.w3.org/2000/svg" viewBox="0 0 813.45 234.82"><defs><style>.cls-1{fill:#191f4a;}.cls-2{fill:#3754a1;}.cls-3{fill:#191e4a;}</style></defs><g><path class="cls-2" d="m195.74,84.59c-2.22-2.35-4.44-4.59-6.06-6.23-1.45-1.46-1.45-1.48-1.46-1.52,2.02,1.69,3.96,3.47,5.82,5.33,3.22,3.22,6.2,6.69,8.9,10.38.28.38.56.77.84,1.16l.03.05c-2.7-3.05-5.28-6.21-8.08-9.17"/><path class="cls-2" d="m195.74,93.96c-6.42-6.02-8.92-10.9-6.86-11.23,3.42-.55,14.45,11.38,14.94,16.16-.3,2.29-7.28-4.18-8.08-4.93"/><path class="cls-2" d="m195.74,112.33c-7.19-4.69-9.72-12.9-5.56-13.91,4.47-1.09,13.26,7.83,13.63,13.82-.29,4.18-6.07,1.39-8.08.09"/><path class="cls-1" d="m195.74,137.1c-7.58-1.85-9.94-12.12-5-15.27,4.67-2.98,12.74,3.06,13.08,9.8-.26,5.07-4.88,6.25-8.08,5.47"/><path class="cls-2" d="m195.74,164.03c-6.66,1.5-9.53-6.17-6.06-11.87,4.04-6.63,12.76-5.09,14,.87.08.4.12.94.14,1.35-.26,5.4-4.98,8.95-8.08,9.65"/><path class="cls-2" d="m210.94,108.23q-5.08-9.79-5.17-10.34s.09-.06.13-.09c2.69,2.01,9.45,17.12,9.92,20.59q-.19-.26-.64-1.29c-.83-1.9-1.97-4.51-4.23-8.87"/><path class="cls-2" d="m210.94,117.28c-6.29-9.42-5.44-11.6-4.41-11.32,3.12.84,9,13.34,9.29,17.45,0,.08-.03.2-.07.27-.14,0-.51.04-4.8-6.39"/><path class="cls-2" d="m210.94,131.33c-5.24-4.21-6.43-10.87-3.76-11.22,3.32-.44,8.42,8.11,8.63,12.14-.18,2.82-4.83-.89-4.88-.93"/><path class="cls-1" d="m210.94,148.59c-4.76.33-6.73-6.77-3.76-9.82,2.98-3.06,8.43.79,8.63,4.99-.15,3.08-3,4.7-4.88,4.83"/><path class="cls-1" d="m149.03,58.86c-2.79-.61-9.43-2.06-10.71-2.45,0,0,0-.02,0-.03,2.43.2,4.83.49,7.2.87,4.7.77,9.28,1.9,13.71,3.38.79.26,1.57.53,2.35.82l.05.03c-.82-.07-7.3-1.46-12.58-2.61"/><path class="cls-1" d="m149.03,72.21c-8.57-1.93-13.43-6.7-9.3-9.12,5.37-3.14,21.2.77,21.88,6.73-.44,3.7-7.95,3.43-12.58,2.39"/><path class="cls-1" d="m149.03,98.38c-9.57-1.84-14.2-10.72-7.99-15.33,6.4-4.75,19.99-.39,20.58,8.51-.43,6.29-7.61,7.78-12.58,6.82"/><path class="cls-1" d="m149.03,133.67c-10.63-1.37-14.73-14.51-6.36-20.38,7.02-4.92,18.41-.51,18.94,9.83-.43,8.34-7.62,11.19-12.58,10.55"/><path class="cls-1" d="m149.03,172.05c-10.07-.32-14.46-12.12-7.21-19.43,6.85-6.92,19.23-3.75,19.8,7.56-.45,8.92-7.96,12.02-12.58,11.87"/><path class="cls-2" d="m174.34,72.28c-6.75-3.77-10.94-7.45-8.95-7.9,3.43-.76,19.04,8.56,19.64,11.74-.46,1.84-10.59-3.78-10.69-3.84"/><path class="cls-2" d="m174.34,90.15c-7.92-3.68-12.18-11.01-7.6-13.07,5.48-2.46,17.78,5.6,18.29,11.98-.37,4.24-6.75,2.92-10.69,1.09"/><path class="cls-2" d="m174.34,117.86c-8.73-2.54-12.73-13.48-6.29-17.21,5.74-3.32,16.5,2.61,16.98,11.21-.36,6.18-6.47,7.22-10.69,5.99"/><path class="cls-2" d="m174.34,151.93c-8.65-.5-12.71-12.58-6.29-18.73,5.74-5.51,16.51-1.59,16.98,8.36-.36,7.57-6.47,10.62-10.69,10.38"/><path class="cls-2" d="m94.16,64.95c-3.07,1.33-6.06,2.83-9.2,4,0,0,0-.02,0-.02,1.69-1.02,3.41-1.99,5.17-2.9,4.09-2.12,8.36-3.93,12.78-5.4,1.11-.37,2.23-.72,3.36-1.05h.05c-.71.39-2.23,1.05-12.16,5.37"/><path class="cls-2" d="m94.16,77.36c-5.87,1.91-10.81,1.45-8.8-2.29,3.45-6.42,19.66-12.19,20.9-7.44.04.14.04.33.06.48-.45,4-7.7,7.8-12.16,9.25"/><path class="cls-2" d="m94.16,101.69c-7.1,1.13-12.03-3.59-7.54-10.15,5.56-8.12,18.59-9.49,19.64-2.05.04.26.04.6.06.86-.43,6.56-7.37,10.58-12.16,11.34"/><path class="cls-2" d="m94.16,134.49c-8.37-.37-12.91-10.42-5.58-17.58,6.4-6.25,17.22-4.23,17.74,5.72-.44,8.53-7.38,12.07-12.16,11.86"/><path class="cls-2" d="m94.16,170.15c-9.65-2.29-12.6-14.42-4.79-19.67,6.57-4.41,16.45.03,16.95,10.04-.43,8.53-7.37,10.77-12.16,9.63"/><path class="cls-2" d="m120.39,62.39c-7.08.54-11.73-.38-10.39-2.06,2.16-2.7,23.03-5.8,23.96-1.89-.47,2.05-8.22,3.55-13.57,3.96"/><path class="cls-2" d="m120.39,82.68c-8.98.14-13.58-5.21-8.64-10.06,6.05-5.93,21.52-5.7,22.21,2.06-.47,5.38-8.22,7.91-13.57,8"/><path class="cls-1" d="m120.39,114.16c-9.98-.5-14.22-10.46-7.21-16.92,6.99-6.44,20.16-3.97,20.78,6.1-.48,7.91-8.23,11.09-13.57,10.82"/><path class="cls-2" d="m120.39,152.85c-10.38-1.16-14.37-14.53-6.37-21.36,7.2-6.14,19.36-2.24,19.94,9.13-.48,9.42-8.22,12.82-13.57,12.22"/><path class="cls-2" d="m120.39,189.2c-10.48-1.5-14.41-13.29-6.37-19.12,7.19-5.21,19.35-1.21,19.94,9-.48,8.25-8.22,10.88-13.57,10.12"/><path class="cls-1" d="m54.6,99.94c-2.38,3.89-3.62,6.35-4.82,8.73,0,0,0,0,0,0,.68-1.5,1.39-2.98,2.15-4.44,2.12-4.09,4.54-7.99,7.24-11.67.88-1.2,1.78-2.37,2.72-3.52l.03-.04c-2.42,3.66-5.03,7.2-7.32,10.94"/><path class="cls-1" d="m54.6,106.93c-4.16,5.57-4.47,5.62-4.74,5.66-.59-.59,2.41-7.16,4.74-10.84,4.97-7.84,6.98-7.7,7-7.7.26.05.3.31.33.55-.2,1.99-2.53,5.91-7.32,12.34"/><path class="cls-2" d="m54.6,120.65c-1.22.99-5.17,3.95-4.82.77.64-5.9,9.45-17.23,11.81-13.59.26.4.3.96.33,1.37-.29,4.6-4.74,9.37-7.32,11.46"/><path class="cls-2" d="m54.6,139.14c-4.9.56-6.82-4.02-2.15-9.66,4.29-5.18,8.95-4.3,9.43.17.02.22.03.51.04.73-.25,4.99-3.92,8.38-7.32,8.77"/><path class="cls-2" d="m54.6,159.25c-4.86-2.97-7.22-10.45-1.14-11.89,3.77-.89,8.19,2.28,8.47,7.88-.25,5.08-4,6.04-7.32,4.01"/><path class="cls-1" d="m71.45,83.22c-6.47,5.22-7.05,4.89-7.24,4.79-.69-2.52,14.65-16.21,17.1-15.26.1.04.17.19.2.3-.42,2.25-7.8,8.35-10.05,10.17"/><path class="cls-2" d="m71.45,98.41c-4.28,2.42-8.1,2.89-7.13-.87,1.8-6.95,14.01-16.02,16.75-12.44.34.45.39,1.01.43,1.47-.37,4.74-6.22,9.68-10.05,11.84"/><path class="cls-1" d="m71.45,121.96c-5.9,1.29-9.67-3.02-5.51-9.69,4.74-7.61,13.79-9.68,15.37-3.52.12.48.17,1.15.2,1.64-.37,6.54-6.1,10.71-10.05,11.57"/><path class="cls-1" d="m71.45,150.91c-7.28-1.34-10.34-11.3-3.14-16.55,5.48-3.99,12.79-1.49,13.19,7.02-.37,7.78-6.1,10.25-10.05,9.52"/><path class="cls-2" d="m71.45,178.12c-7.32-3.92-10.38-13.87-3.14-15.81,5.48-1.47,12.79,3.45,13.19,11.06-.34,6.17-5.38,7.26-10.05,4.75"/></g><path class="cls-3" d="m306.26,112.33c-2.52-2.55-5.25-4.46-8.21-5.74-2.96-1.28-6.13-1.91-9.5-1.91-7.34,0-13.57,2.78-18.7,8.33-5.13,5.55-7.7,12.67-7.7,21.36s2.65,15.39,7.95,21.02c5.31,5.64,11.59,8.46,18.86,8.46,3.24,0,6.24-.58,9.02-1.73,2.77-1.15,5.54-3.04,8.29-5.66v5.95h14.12v-77.99h-14.12v27.93Zm-3.76,33.95c-2.92,3.09-6.6,4.63-11.03,4.63s-7.91-1.57-10.85-4.71c-2.94-3.14-4.41-7.14-4.41-12s1.44-8.78,4.33-11.87c2.89-3.09,6.51-4.63,10.88-4.63s8.16,1.52,11.08,4.55c2.92,3.03,4.38,7,4.38,11.9s-1.46,9.04-4.38,12.13Z"/><path class="cls-3" d="m376.43,112.33c-2.52-2.55-5.25-4.46-8.21-5.74-2.96-1.28-6.13-1.91-9.5-1.91-7.34,0-13.57,2.78-18.7,8.33-5.13,5.55-7.7,12.67-7.7,21.36s2.65,15.39,7.95,21.02c5.31,5.64,11.59,8.46,18.86,8.46,3.24,0,6.24-.58,9.02-1.73,2.77-1.15,5.54-3.04,8.29-5.66v5.95h14.12v-56.27h-14.12v6.21Zm-3.76,33.95c-2.92,3.09-6.6,4.63-11.03,4.63s-7.91-1.57-10.85-4.71c-2.94-3.14-4.41-7.14-4.41-12s1.44-8.78,4.33-11.87c2.89-3.09,6.51-4.63,10.88-4.63s8.16,1.52,11.08,4.55c2.92,3.03,4.38,7,4.38,11.9s-1.46,9.04-4.38,12.13Z"/><polygon class="cls-3" points="425.11 86.83 410.99 86.83 410.99 107.57 403.74 107.57 403.74 119.73 410.99 119.73 410.99 163.84 425.11 163.84 425.11 119.73 433.48 119.73 433.48 107.57 425.11 107.57 425.11 86.83"/><path class="cls-3" d="m487.01,112.33c-2.52-2.55-5.25-4.46-8.21-5.74-2.96-1.28-6.13-1.91-9.5-1.91-7.34,0-13.57,2.78-18.7,8.33-5.13,5.55-7.7,12.67-7.7,21.36s2.65,15.39,7.95,21.02c5.31,5.64,11.59,8.46,18.86,8.46,3.24,0,6.24-.58,9.02-1.73,2.77-1.15,5.54-3.04,8.29-5.66v5.95h14.12v-56.27h-14.12v6.21Zm-3.76,33.95c-2.92,3.09-6.6,4.63-11.03,4.63s-7.91-1.57-10.85-4.71c-2.94-3.14-4.41-7.14-4.41-12s1.44-8.78,4.33-11.87c2.89-3.09,6.51-4.63,10.88-4.63s8.16,1.52,11.08,4.55c2.92,3.03,4.38,7,4.38,11.9s-1.46,9.04-4.38,12.13Z"/><polygon class="cls-2" points="535.69 86.83 521.57 86.83 521.57 107.57 514.33 107.57 514.33 119.73 521.57 119.73 521.57 163.84 535.69 163.84 535.69 119.73 544.06 119.73 544.06 107.57 535.69 107.57 535.69 86.83"/><path class="cls-2" d="m582.55,104.68c-8.35,0-15.28,2.84-20.82,8.51-5.54,5.67-8.3,12.8-8.3,21.39s2.77,15.35,8.33,20.92c5.55,5.57,12.74,8.35,21.57,8.35,5.69,0,10.6-1.01,14.74-3.03,4.14-2.02,7.69-5.13,10.65-9.33l-11.9-5.59c-3.79,3.69-8.33,5.53-13.6,5.53-4.41,0-8.04-1.18-10.89-3.54-2.85-2.36-4.59-5.54-5.25-9.54h45.36l.05-2.69c0-9.31-2.78-16.8-8.33-22.47-5.55-5.67-12.76-8.51-21.62-8.51Zm-14.84,22.55c1.59-3.48,3.32-5.91,5.18-7.29,2.97-2.21,6.42-3.31,10.36-3.31,3.63,0,6.81.98,9.56,2.95,2.75,1.96,4.59,4.52,5.52,7.65h-30.62Z"/><path class="cls-2" d="m655.41,117.81c2.9,0,5.43.45,7.59,1.34,2.16.9,4.34,2.5,6.55,4.81l11.75-6.47c-2.83-4.1-6.47-7.27-10.91-9.49-4.45-2.22-9.47-3.34-15.05-3.34-6.04,0-11.49,1.31-16.37,3.93-4.88,2.62-8.68,6.22-11.41,10.81-2.72,4.59-4.09,9.6-4.09,15.05,0,7.86,2.8,14.72,8.41,20.59,5.6,5.86,13.35,8.79,23.25,8.79,11,0,19.52-3.92,25.55-11.77l-11.13-7.62c-3.52,4.31-8.44,6.46-14.76,6.46-5.11,0-9.23-1.51-12.37-4.54-3.14-3.03-4.71-6.94-4.71-11.72s1.63-8.96,4.89-12.11c3.26-3.15,7.53-4.72,12.82-4.72Z"/><path class="cls-2" d="m723.04,106.12c-2.86,0-5.69.59-8.48,1.78-2.79,1.19-5.57,2.97-8.33,5.35v-27.41h-14.02v77.99h14.02v-22.6c0-6.03.21-9.9.62-11.59.79-3.27,2.22-5.86,4.27-7.76,2.05-1.9,4.51-2.84,7.37-2.84,2.21,0,4.06.57,5.56,1.71,1.5,1.14,2.56,2.86,3.18,5.17.62,2.31.93,6.72.93,13.24v24.67h13.91v-37.19c0-6.48-1.64-11.4-4.91-14.74-3.83-3.86-8.53-5.79-14.12-5.79Z"/><path class="cls-3" d="m751.98,153.92c-4.02,4.06-1.59,10.62,4.01,10.8,2.57.08,6.74-1.64,6.99-6.6-.32-6.29-7.19-8.05-11-4.2Z"/></svg>